<svg xmlns="http://www.w3.org/2000/svg" xmlns:svg="http://www.w3.org/2000/svg" xmlns:xlink="http://www.w3.org/1999/xlink" version="1.0" height="1290.1639938354492pt" width="1405.1675033569336pt" viewBox="60 137 1413.1675033569336 1296.1639938354492" ><defs><style type="text/css">
            @font-face {
                font-family: 'noto_regular';
                src: url('https://app.creately.com/diagram/assets/fonts/noto/noto-regular.woff') format('woff'),
                     url('https://app.creately.com/diagram/assets/fonts/noto/noto-regular.woff2') format('woff2');
                font-weight: normal;
                font-style: normal;
            }
        p {
            margin: 0;
        }
        </style></defs><defs><style>
            span{ display: inline-block; }
        </style></defs><g id="1bxbkbafpu"><g transform="translate(65 140)"><rect x="0" y="0" width="1405.1675033569336" height="1290.1639938354492" fill="rgba(210,222,237,1)" stroke="#d2deed" stroke-width="1.5" stroke-linecap="round" stroke-linejoin="round"/></g></g><g id="5mk4ivgzck"><g transform="translate(355 395)"><rect x="0" y="0" width="100" height="50" fill="rgba(252,101,126,1)" stroke="#fc657e" stroke-width="1.5" stroke-linecap="round" stroke-linejoin="round"/></g><g transform="translate(383.5, 410.5) rotate(0, 21.5, 9.5)" width="43" height="19"><text text-decoration="none" x="3" fill="rgb(255, 255, 255)" font-size="10pt" font-family="Lato"  y="15">Author</text><text text-decoration="none" x="40" fill="#4b4b4b" font-size="10pt" font-family="noto_regular"  y="15"></text></g></g><g id="27qlke333t"><g transform="translate(754.95 395)"><rect x="0" y="0" width="100" height="50" fill="rgba(252,101,126,1)" stroke="#fc657e" stroke-width="1.5" stroke-linecap="round" stroke-linejoin="round"/></g><g transform="translate(761.95, 410.5) rotate(0, 43, 9.5)" width="86" height="19"><text text-decoration="none" x="5.5" fill="rgb(255, 255, 255)" font-size="10pt" font-family="Lato"  y="15">Published_by</text><text text-decoration="none" x="80.5" fill="#4b4b4b" font-size="10pt" font-family="noto_regular"  y="15"></text></g></g><g id="pp96uzar2o"><g transform="translate(340 595)"><path d="M 130,30 L 65,60 L 0,30 L 65,0 L 130,30 L 130,30 Z" fill="rgba(255,190,48,1)" stroke="#ffbe30" stroke-width="1.5" stroke-linecap="round" stroke-linejoin="round"/></g><g transform="translate(370, 615.5) rotate(0, 35, 9.5)" width="70" height="19"><text text-decoration="none" x="5" fill="rgb(0, 0, 0)" font-size="10pt" font-family="Lato"  y="15">Written_by</text><text text-decoration="none" x="65" fill="#4b4b4b" font-size="10pt" font-family="noto_regular"  y="15"></text></g></g><g id="1r6d4fw0cu"><g transform="translate(739.95 585)"><path d="M 130,30 L 65,60 L 0,30 L 65,0 L 130,30 L 130,30 Z" fill="rgba(255,190,48,1)" stroke="#ffbe30" stroke-width="1.5" stroke-linecap="round" stroke-linejoin="round"/></g><g transform="translate(761.95, 605.5) rotate(0, 43, 9.5)" width="86" height="19"><text text-decoration="none" x="6" fill="rgb(0, 0, 0)" font-size="10pt" font-family="Lato"  y="15">published_by</text><text text-decoration="none" x="80" fill="#4b4b4b" font-size="10pt" font-family="noto_regular"  y="15"></text></g></g><g id="rbs60kq4yd"><g transform="translate(405 265)"><ellipse cx="50" cy="25" rx="50" ry="25" fill="rgba(54,94,134,1)" stroke="#365e86" stroke-width="1.5" stroke-linecap="round" stroke-linejoin="round"/></g><g transform="translate(429.5, 280.5) rotate(0, 25.5, 9.5)" width="51" height="19"><text text-decoration="none" x="2.5" fill="rgb(255, 255, 255)" font-size="10pt" font-family="Lato"  y="15">address</text><text text-decoration="none" x="48.5" fill="#4b4b4b" font-size="10pt" font-family="noto_regular"  y="15"></text></g></g><g id="9efvwi5vv3"><g transform="translate(225 280)"><ellipse cx="50" cy="25" rx="50" ry="25" fill="rgba(54,94,134,1)" stroke="#365e86" stroke-width="1.5" stroke-linecap="round" stroke-linejoin="round"/></g><g transform="translate(255.5, 295.5) rotate(0, 19.5, 9.5)" width="39" height="19"><text text-decoration="underline" x="2.5" fill="rgb(255, 255, 255)" font-size="10pt" font-family="Lato"  y="15">Name</text><text text-decoration="none" x="36.5" fill="#4b4b4b" font-size="10pt" font-family="noto_regular"  y="15"></text></g></g><g id="1mddtd8xno"><g transform="translate(134.91111111111107 370)"><ellipse cx="50" cy="25" rx="50" ry="25" fill="rgba(54,94,134,1)" stroke="#365e86" stroke-width="1.5" stroke-linecap="round" stroke-linejoin="round"/></g><g transform="translate(171.91111111111107, 385.5) rotate(0, 13, 9.5)" width="26" height="19"><text text-decoration="none" x="1.5" fill="rgb(255, 255, 255)" font-size="10pt" font-family="Lato"  y="15">URL</text><text text-decoration="none" x="24.5" fill="#4b4b4b" font-size="10pt" font-family="noto_regular"  y="15"></text></g></g><g id="fp5k8x55v3"><g transform="translate(644.95 265)"><ellipse cx="50" cy="25" rx="50" ry="25" fill="rgba(54,94,134,1)" stroke="#365e86" stroke-width="1.5" stroke-linecap="round" stroke-linejoin="round"/></g><g transform="translate(675.45, 280.5) rotate(0, 19.5, 9.5)" width="39" height="19"><text text-decoration="underline" x="2.5" fill="rgb(255, 255, 255)" font-size="10pt" font-family="Lato"  y="15">Name</text><text text-decoration="none" x="36.5" fill="#4b4b4b" font-size="10pt" font-family="noto_regular"  y="15"></text></g></g><g id="1r2hyawiho"><g transform="translate(819.95 270)"><ellipse cx="50" cy="25" rx="50" ry="25" fill="rgba(54,94,134,1)" stroke="#365e86" stroke-width="1.5" stroke-linecap="round" stroke-linejoin="round"/></g><g transform="translate(844.45, 285.5) rotate(0, 25.5, 9.5)" width="51" height="19"><text text-decoration="none" x="2.5" fill="rgb(255, 255, 255)" font-size="10pt" font-family="Lato"  y="15">address</text><text text-decoration="none" x="48.5" fill="#4b4b4b" font-size="10pt" font-family="noto_regular"  y="15"></text></g></g><g id="1z3sscmt8g"><g transform="translate(955 325)"><ellipse cx="50" cy="25" rx="50" ry="25" fill="rgba(54,94,134,1)" stroke="#365e86" stroke-width="1.5" stroke-linecap="round" stroke-linejoin="round"/></g><g transform="translate(985, 340.5) rotate(0, 20, 9.5)" width="40" height="19"><text text-decoration="none" x="2" fill="rgb(255, 255, 255)" font-size="10pt" font-family="Lato"  y="15">Phone</text><text text-decoration="none" x="38" fill="#4b4b4b" font-size="10pt" font-family="noto_regular"  y="15"></text></g></g><g id="8pfioxghkz"><g transform="translate(955 420)"><ellipse cx="50" cy="25" rx="50" ry="25" fill="rgba(54,94,134,1)" stroke="#365e86" stroke-width="1.5" stroke-linecap="round" stroke-linejoin="round"/></g><g transform="translate(992, 435.5) rotate(0, 13, 9.5)" width="26" height="19"><text text-decoration="none" x="1.5" fill="rgb(255, 255, 255)" font-size="10pt" font-family="Lato"  y="15">URL</text><text text-decoration="none" x="24.5" fill="#4b4b4b" font-size="10pt" font-family="noto_regular"  y="15"></text></g></g><g id="75cekxpth1"><g transform="translate(355 825)"><rect x="0" y="0" width="100" height="50" fill="rgba(252,101,126,1)" stroke="#fc657e" stroke-width="1.5" stroke-linecap="round" stroke-linejoin="round"/></g><g transform="translate(386, 840.5) rotate(0, 19, 9.5)" width="38" height="19"><text text-decoration="none" x="3.5" fill="rgb(255, 255, 255)" font-size="10pt" font-family="Lato"  y="15">Entity</text><text text-decoration="none" x="34.5" fill="#4b4b4b" font-size="10pt" font-family="noto_regular"  y="15"></text></g></g><g id="2391c1dpl6"><g transform="translate(160 820)"><ellipse cx="50" cy="25" rx="50" ry="25" fill="rgba(54,94,134,1)" stroke="#365e86" stroke-width="1.5" stroke-linecap="round" stroke-linejoin="round"/></g><g transform="translate(195.5, 835.5) rotate(0, 14.5, 9.5)" width="29" height="19"><text text-decoration="none" x="2.5" fill="rgb(255, 255, 255)" font-size="10pt" font-family="Lato"  y="15">year</text><text text-decoration="none" x="26.5" fill="#4b4b4b" font-size="10pt" font-family="noto_regular"  y="15"></text></g></g><g id="die7pzme2k"><g transform="translate(180 930)"><ellipse cx="50" cy="25" rx="50" ry="25" fill="rgba(54,94,134,1)" stroke="#365e86" stroke-width="1.5" stroke-linecap="round" stroke-linejoin="round"/></g><g transform="translate(217, 945.5) rotate(0, 13, 9.5)" width="26" height="19"><text text-decoration="none" x="2.5" fill="rgb(255, 255, 255)" font-size="10pt" font-family="Lato"  y="15">title</text><text text-decoration="none" x="23.5" fill="#4b4b4b" font-size="10pt" font-family="noto_regular"  y="15"></text></g></g><g id="9i4qhkzkm5"><g transform="translate(300 995)"><ellipse cx="50" cy="25" rx="50" ry="25" fill="rgba(54,94,134,1)" stroke="#365e86" stroke-width="1.5" stroke-linecap="round" stroke-linejoin="round"/></g><g transform="translate(334, 1010.5) rotate(0, 16, 9.5)" width="32" height="19"><text text-decoration="none" x="2" fill="rgb(255, 255, 255)" font-size="10pt" font-family="Lato"  y="15">price</text><text text-decoration="none" x="30" fill="#4b4b4b" font-size="10pt" font-family="noto_regular"  y="15"></text></g></g><g id="4v1xlp3akz"><g transform="translate(460 990)"><ellipse cx="50" cy="25" rx="50" ry="25" fill="rgba(54,94,134,1)" stroke="#365e86" stroke-width="1.5" stroke-linecap="round" stroke-linejoin="round"/></g><g transform="translate(494.5, 1005.5) rotate(0, 15.5, 9.5)" width="31" height="19"><text text-decoration="underline" x="1" fill="rgb(255, 255, 255)" font-size="10pt" font-family="Lato"  y="15">ISBN</text><text text-decoration="none" x="30" fill="#4b4b4b" font-size="10pt" font-family="noto_regular"  y="15"></text></g></g><g id="3yc3yhp42c"><g><path d="M 405,395 L 455,315" fill="none" stroke="#000000" stroke-width="1.5" stroke-linecap="round" stroke-linejoin="round"/></g></g><g id="2dzvsl8sns"><g><path d="M 405,395 L 275,330" fill="none" stroke="#000000" stroke-width="1.5" stroke-linecap="round" stroke-linejoin="round"/></g></g><g id="ac6wvu7ruz"><g><path d="M 355,420 L 234.91111111111107,395" fill="none" stroke="#000000" stroke-width="1.5" stroke-linecap="round" stroke-linejoin="round"/></g></g><g id="2q27ljx5oc"><g><path d="M 355,850 L 260,845" fill="none" stroke="#000000" stroke-width="1.5" stroke-linecap="round" stroke-linejoin="round"/></g></g><g id="1gu3wxt61s"><g><path d="M 355,850 L 280,955" fill="none" stroke="#000000" stroke-width="1.5" stroke-linecap="round" stroke-linejoin="round"/></g></g><g id="1rvr0h6cky"><g><path d="M 405,875 L 350,995" fill="none" stroke="#000000" stroke-width="1.5" stroke-linecap="round" stroke-linejoin="round"/></g></g><g id="1egpe1n295"><g><path d="M 405,875 L 510,990" fill="none" stroke="#000000" stroke-width="1.5" stroke-linecap="round" stroke-linejoin="round"/></g></g><g id="s869zqaeoc"><g transform="translate(739.95 975)"><path d="M 130,30 L 65,60 L 0,30 L 65,0 L 130,30 L 130,30 Z" fill="rgba(255,190,48,1)" stroke="#ffbe30" stroke-width="1.5" stroke-linecap="round" stroke-linejoin="round"/></g><g transform="translate(776.45, 995.5) rotate(0, 28.5, 9.5)" width="57" height="19"><text text-decoration="none" x="3.5" fill="rgb(0, 0, 0)" font-size="10pt" font-family="Lato"  y="15">Contains</text><text text-decoration="none" x="53.5" fill="#4b4b4b" font-size="10pt" font-family="noto_regular"  y="15"></text></g></g><g id="8floaqxn9m"><g transform="translate(739.95 1105)"><path d="M 130,30 L 65,60 L 0,30 L 65,0 L 130,30 L 130,30 Z" fill="rgba(255,190,48,1)" stroke="#ffbe30" stroke-width="1.5" stroke-linecap="round" stroke-linejoin="round"/></g><g transform="translate(783.45, 1125.5) rotate(0, 21.5, 9.5)" width="43" height="19"><text text-decoration="none" x="1.5" fill="rgb(0, 0, 0)" font-size="10pt" font-family="Lato"  y="15">Stocks</text><text text-decoration="none" x="41.5" fill="#4b4b4b" font-size="10pt" font-family="noto_regular"  y="15"></text></g></g><g id="5eoc7z8te1"><g transform="translate(754.95 875)"><ellipse cx="50" cy="25" rx="50" ry="25" fill="rgba(54,94,134,1)" stroke="#365e86" stroke-width="1.5" stroke-linecap="round" stroke-linejoin="round"/></g><g transform="translate(778.95, 890.5) rotate(0, 26, 9.5)" width="52" height="19"><text text-decoration="none" x="3.5" fill="rgb(255, 255, 255)" font-size="10pt" font-family="Lato"  y="15">Number</text><text text-decoration="none" x="48.5" fill="#4b4b4b" font-size="10pt" font-family="noto_regular"  y="15"></text></g></g><g id="283vse54ac"><g transform="translate(754.95 1235)"><ellipse cx="50" cy="25" rx="50" ry="25" fill="rgba(54,94,134,1)" stroke="#365e86" stroke-width="1.5" stroke-linecap="round" stroke-linejoin="round"/></g><g transform="translate(778.95, 1250.5) rotate(0, 26, 9.5)" width="52" height="19"><text text-decoration="none" x="3.5" fill="rgb(255, 255, 255)" font-size="10pt" font-family="Lato"  y="15">Number</text><text text-decoration="none" x="48.5" fill="#4b4b4b" font-size="10pt" font-family="noto_regular"  y="15"></text></g></g><g id="1ok5smzgcb"><g><path d="M 804.95,975 L 804.95,925" fill="none" stroke="#000000" stroke-width="1.5" stroke-linecap="round" stroke-linejoin="round"/></g></g><g id="86ublu9i8l"><g><path d="M 804.95,1165 L 804.95,1235" fill="none" stroke="#000000" stroke-width="1.5" stroke-linecap="round" stroke-linejoin="round"/></g></g><g id="5qg3zuw9jv"><mask id="c9df6" x="442" y="837" width="310.95000000000005" height="181" maskUnits="userSpaceOnUse"><rect x="442" y="837" width="310.95000000000005" height="181" fill="white" /><rect x="589.475" y="915" width="16" height="25" fill="black" /></mask><g mask="url(#c9df6)"><path d="M 455,850 L 739.95,1005" fill="none" stroke="#000000" stroke-width="1.5" stroke-linecap="round" stroke-linejoin="round"/></g><g transform="translate(592.475, 918)" width="10" height="19"><text text-decoration="none" x="1" fill="rgb(75, 75, 75)" font-weight="bold" font-size="9pt" font-family="Arial"  y="15">N</text><text text-decoration="none" x="9" fill="#4b4b4b" font-size="10pt" font-family="noto_regular"  y="15"></text></g></g><g id="1igvzcmwng"><mask id="1c6e6" x="442" y="837" width="310.95000000000005" height="311" maskUnits="userSpaceOnUse"><rect x="442" y="837" width="310.95000000000005" height="311" fill="white" /><rect x="589.475" y="980" width="16" height="25" fill="black" /></mask><g mask="url(#1c6e6)"><path d="M 455,850 L 739.95,1135" fill="none" stroke="#000000" stroke-width="1.5" stroke-linecap="round" stroke-linejoin="round"/></g><g transform="translate(592.475, 983)" width="10" height="19"><text text-decoration="none" x="1" fill="rgb(75, 75, 75)" font-weight="bold" font-size="9pt" font-family="Arial"  y="15">N</text><text text-decoration="none" x="9" fill="#4b4b4b" font-size="10pt" font-family="noto_regular"  y="15"></text></g></g><g id="4opd9unphu"><g transform="translate(960 1110)"><rect x="0" y="0" width="100" height="50" fill="rgba(252,101,126,1)" stroke="#fc657e" stroke-width="1.5" stroke-linecap="round" stroke-linejoin="round"/></g><g transform="translate(974.5, 1125.5) rotate(0, 35.5, 9.5)" width="71" height="19"><text text-decoration="none" x="4" fill="rgb(255, 255, 255)" font-size="10pt" font-family="Lato"  y="15">warehouse</text><text text-decoration="none" x="67" fill="#4b4b4b" font-size="10pt" font-family="noto_regular"  y="15"></text></g></g><g id="2zosmti7qu"><g transform="translate(955 980)"><rect x="0" y="0" width="100" height="50" fill="rgba(252,101,126,1)" stroke="#fc657e" stroke-width="1.5" stroke-linecap="round" stroke-linejoin="round"/></g><g transform="translate(950, 995.5) rotate(0, 55, 9.5)" width="110" height="19"><text text-decoration="none" x="6.5" fill="rgb(255, 255, 255)" font-size="10pt" font-family="Lato"  y="15">shopping_basket</text><text text-decoration="none" x="103.5" fill="#4b4b4b" font-size="10pt" font-family="noto_regular"  y="15"></text></g></g><g id="15m0oym48h"><mask id="6ae72" x="856.95" y="992" width="111.04999999999995" height="26" maskUnits="userSpaceOnUse"><rect x="856.95" y="992" width="111.04999999999995" height="26" fill="white" /><rect x="904.475" y="992.5" width="16" height="25" fill="black" /></mask><g mask="url(#6ae72)"><path d="M 869.95,1005 L 955,1005" fill="none" stroke="#000000" stroke-width="1.5" stroke-linecap="round" stroke-linejoin="round"/></g><g transform="translate(907.475, 995.5)" width="10" height="19"><text text-decoration="none" x="1" fill="rgb(75, 75, 75)" font-weight="bold" font-size="9pt" font-family="Arial"  y="15">N</text><text text-decoration="none" x="9" fill="#4b4b4b" font-size="10pt" font-family="noto_regular"  y="15"></text></g></g><g id="1rxo7sadgf"><mask id="8684a" x="856.95" y="1122" width="116.04999999999995" height="26" maskUnits="userSpaceOnUse"><rect x="856.95" y="1122" width="116.04999999999995" height="26" fill="white" /><rect x="906.975" y="1122.5" width="16" height="25" fill="black" /></mask><g mask="url(#8684a)"><path d="M 869.95,1135 L 960,1135" fill="none" stroke="#000000" stroke-width="1.5" stroke-linecap="round" stroke-linejoin="round"/></g><g transform="translate(909.975, 1125.5)" width="10" height="19"><text text-decoration="none" x="1" fill="rgb(75, 75, 75)" font-weight="bold" font-size="9pt" font-family="Arial"  y="15">N</text><text text-decoration="none" x="9" fill="#4b4b4b" font-size="10pt" font-family="noto_regular"  y="15"></text></g></g><g id="29voxu738o"><g transform="translate(960 1225)"><ellipse cx="50" cy="25" rx="50" ry="25" fill="rgba(54,94,134,1)" stroke="#365e86" stroke-width="1.5" stroke-linecap="round" stroke-linejoin="round"/></g><g transform="translate(984.5, 1240.5) rotate(0, 25.5, 9.5)" width="51" height="19"><text text-decoration="none" x="2.5" fill="rgb(255, 255, 255)" font-size="10pt" font-family="Lato"  y="15">address</text><text text-decoration="none" x="48.5" fill="#4b4b4b" font-size="10pt" font-family="noto_regular"  y="15"></text></g></g><g id="6ondf7vmqh"><g><path d="M 1010,1160 L 1010,1225" fill="none" stroke="#000000" stroke-width="1.5" stroke-linecap="round" stroke-linejoin="round"/></g></g><g id="14db35tn1a"><g transform="translate(1135 1205)"><ellipse cx="50" cy="25" rx="50" ry="25" fill="rgba(54,94,134,1)" stroke="#365e86" stroke-width="1.5" stroke-linecap="round" stroke-linejoin="round"/></g><g transform="translate(1165, 1220.5) rotate(0, 20, 9.5)" width="40" height="19"><text text-decoration="none" x="2.5" fill="rgb(255, 255, 255)" font-size="10pt" font-family="Lato"  y="15">phone</text><text text-decoration="none" x="37.5" fill="#4b4b4b" font-size="10pt" font-family="noto_regular"  y="15"></text></g></g><g id="29hj16kyav"><g><path d="M 1060,1135 L 1135,1230" fill="none" stroke="#000000" stroke-width="1.5" stroke-linecap="round" stroke-linejoin="round"/></g></g><g id="2h66dhz97g"><g transform="translate(1155 875)"><path d="M 130,30 L 65,60 L 0,30 L 65,0 L 130,30 L 130,30 Z" fill="rgba(255,190,48,1)" stroke="#ffbe30" stroke-width="1.5" stroke-linecap="round" stroke-linejoin="round"/></g><g transform="translate(1188, 895.5) rotate(0, 32, 9.5)" width="64" height="19"><text text-decoration="none" x="3.5" fill="rgb(0, 0, 0)" font-size="10pt" font-family="Lato"  y="15">basket_of</text><text text-decoration="none" x="60.5" fill="#4b4b4b" font-size="10pt" font-family="noto_regular"  y="15"></text></g></g><g id="22r4anmw4n"><mask id="bc5ac" x="1042" y="922" width="191" height="96" maskUnits="userSpaceOnUse"><rect x="1042" y="922" width="191" height="96" fill="white" /><rect x="1129.5" y="957.5" width="16" height="25" fill="black" /></mask><g mask="url(#bc5ac)"><path d="M 1055,1005 L 1220,935" fill="none" stroke="#000000" stroke-width="1.5" stroke-linecap="round" stroke-linejoin="round"/></g><g transform="translate(1132.5, 960.5)" width="10" height="19"><text text-decoration="none" x="1" fill="rgb(75, 75, 75)" font-weight="bold" font-size="9pt" font-family="Arial"  y="15">N</text><text text-decoration="none" x="9" fill="#4b4b4b" font-size="10pt" font-family="noto_regular"  y="15"></text></g></g><g id="1uz5xnngi4"><g transform="translate(955 870)"><ellipse cx="50" cy="25" rx="50" ry="25" fill="rgba(54,94,134,1)" stroke="#365e86" stroke-width="1.5" stroke-linecap="round" stroke-linejoin="round"/></g><g transform="translate(976, 885.5) rotate(0, 29, 9.5)" width="58" height="19"><text text-decoration="underline" x="3" fill="rgb(255, 255, 255)" font-size="10pt" font-family="Lato"  y="15">basketID</text><text text-decoration="none" x="55" fill="#4b4b4b" font-size="10pt" font-family="noto_regular"  y="15"></text></g></g><g id="25fo126xx1"><g><path d="M 1005,980 L 1005,920" fill="none" stroke="#000000" stroke-width="1.5" stroke-linecap="round" stroke-linejoin="round"/></g></g><g id="2cs38iztqs"><g transform="translate(1170 755)"><rect x="0" y="0" width="100" height="50" fill="rgba(252,101,126,1)" stroke="#fc657e" stroke-width="1.5" stroke-linecap="round" stroke-linejoin="round"/></g><g transform="translate(1189.5, 770.5) rotate(0, 30.5, 9.5)" width="61" height="19"><text text-decoration="none" x="3.5" fill="rgb(255, 255, 255)" font-size="10pt" font-family="Lato"  y="15">customer</text><text text-decoration="none" x="57.5" fill="#4b4b4b" font-size="10pt" font-family="noto_regular"  y="15"></text></g></g><g id="1lyyi5hgak"><mask id="e2105" x="1207" y="792" width="26" height="96" maskUnits="userSpaceOnUse"><rect x="1207" y="792" width="26" height="96" fill="white" /><rect x="1212" y="827.5" width="16" height="25" fill="black" /></mask><g mask="url(#e2105)"><path d="M 1220,875 L 1220,805" fill="none" stroke="#000000" stroke-width="1.5" stroke-linecap="round" stroke-linejoin="round"/></g><g transform="translate(1215, 830.5)" width="10" height="19"><text text-decoration="none" x="1" fill="rgb(75, 75, 75)" font-weight="bold" font-size="9pt" font-family="Arial"  y="15">N</text><text text-decoration="none" x="9" fill="#4b4b4b" font-size="10pt" font-family="noto_regular"  y="15"></text></g></g><g id="9ghmb55yxp"><g transform="translate(1000 680)"><ellipse cx="50" cy="25" rx="50" ry="25" fill="rgba(54,94,134,1)" stroke="#365e86" stroke-width="1.5" stroke-linecap="round" stroke-linejoin="round"/></g><g transform="translate(1031.5, 695.5) rotate(0, 18.5, 9.5)" width="37" height="19"><text text-decoration="none" x="2.5" fill="rgb(255, 255, 255)" font-size="10pt" font-family="Lato"  y="15">name</text><text text-decoration="none" x="34.5" fill="#4b4b4b" font-size="10pt" font-family="noto_regular"  y="15"></text></g></g><g id="ymucpkgd8e"><g><path d="M 1170,780 L 1100,705" fill="none" stroke="#000000" stroke-width="1.5" stroke-linecap="round" stroke-linejoin="round"/></g></g><g id="1f905naf98"><g transform="translate(1070 600)"><ellipse cx="50" cy="25" rx="50" ry="25" fill="rgba(54,94,134,1)" stroke="#365e86" stroke-width="1.5" stroke-linecap="round" stroke-linejoin="round"/></g><g transform="translate(1094.5, 615.5) rotate(0, 25.5, 9.5)" width="51" height="19"><text text-decoration="none" x="2.5" fill="rgb(255, 255, 255)" font-size="10pt" font-family="Lato"  y="15">address</text><text text-decoration="none" x="48.5" fill="#4b4b4b" font-size="10pt" font-family="noto_regular"  y="15"></text></g></g><g id="7qki3opf3l"><g><path d="M 1220,755 L 1150,645" fill="none" stroke="#000000" stroke-width="1.5" stroke-linecap="round" stroke-linejoin="round"/></g></g><g id="40myy9co2b"><g transform="translate(1315 685)"><ellipse cx="50" cy="25" rx="50" ry="25" fill="rgba(54,94,134,1)" stroke="#365e86" stroke-width="1.5" stroke-linecap="round" stroke-linejoin="round"/></g><g transform="translate(1345, 700.5) rotate(0, 20, 9.5)" width="40" height="19"><text text-decoration="none" x="2.5" fill="rgb(255, 255, 255)" font-size="10pt" font-family="Lato"  y="15">phone</text><text text-decoration="none" x="37.5" fill="#4b4b4b" font-size="10pt" font-family="noto_regular"  y="15"></text></g></g><g id="12nkcagcy3"><g><path d="M 1270,780 L 1335,730" fill="none" stroke="#000000" stroke-width="1.5" stroke-linecap="round" stroke-linejoin="round"/></g></g><g id="578ohnyy1v"><g transform="translate(1250 600)"><ellipse cx="50" cy="25" rx="50" ry="25" fill="rgba(54,94,134,1)" stroke="#365e86" stroke-width="1.5" stroke-linecap="round" stroke-linejoin="round"/></g><g transform="translate(1281.5, 615.5) rotate(0, 18.5, 9.5)" width="37" height="19"><text text-decoration="underline" x="3" fill="rgb(255, 255, 255)" font-size="10pt" font-family="Lato"  y="15">email</text><text text-decoration="none" x="34" fill="#4b4b4b" font-size="10pt" font-family="noto_regular"  y="15"></text></g></g><g id="1cstap1cyh"><g><path d="M 1220,755 L 1270,645" fill="none" stroke="#000000" stroke-width="1.5" stroke-linecap="round" stroke-linejoin="round"/></g></g><g id="1nxepad35g"><mask id="d86e8" x="392" y="642" width="26" height="196" maskUnits="userSpaceOnUse"><rect x="392" y="642" width="26" height="196" fill="white" /><rect x="397" y="727.5" width="16" height="25" fill="black" /></mask><g mask="url(#d86e8)"><path d="M 405,825 L 405,655" fill="none" stroke="#000000" stroke-width="1.5" stroke-linecap="round" stroke-linejoin="round"/></g><g transform="translate(400, 730.5)" width="10" height="19"><text text-decoration="none" x="1" fill="rgb(75, 75, 75)" font-weight="bold" font-size="9pt" font-family="Arial"  y="15">N</text><text text-decoration="none" x="9" fill="#4b4b4b" font-size="10pt" font-family="noto_regular"  y="15"></text></g></g><g id="43vc8kvshr"><mask id="479b6" x="392" y="432" width="26" height="176" maskUnits="userSpaceOnUse"><rect x="392" y="432" width="26" height="176" fill="white" /><rect x="397" y="507.5" width="16" height="25" fill="black" /></mask><g mask="url(#479b6)"><path d="M 405,595 L 405,445" fill="none" stroke="#000000" stroke-width="1.5" stroke-linecap="round" stroke-linejoin="round"/></g><g transform="translate(400, 510.5)" width="10" height="19"><text text-decoration="none" x="1" fill="rgb(75, 75, 75)" font-weight="bold" font-size="9pt" font-family="Arial"  y="15">N</text><text text-decoration="none" x="9" fill="#4b4b4b" font-size="10pt" font-family="noto_regular"  y="15"></text></g></g><g id="2dl811s3a3"><mask id="65542" x="392" y="632" width="425.95000000000005" height="206" maskUnits="userSpaceOnUse"><rect x="392" y="632" width="425.95000000000005" height="206" fill="white" /><rect x="596.975" y="722.5" width="16" height="25" fill="black" /></mask><g mask="url(#65542)"><path d="M 405,825 L 804.95,645" fill="none" stroke="#000000" stroke-width="1.5" stroke-linecap="round" stroke-linejoin="round"/></g><g transform="translate(599.975, 725.5)" width="10" height="19"><text text-decoration="none" x="1" fill="rgb(75, 75, 75)" font-weight="bold" font-size="9pt" font-family="Arial"  y="15">N</text><text text-decoration="none" x="9" fill="#4b4b4b" font-size="10pt" font-family="noto_regular"  y="15"></text></g></g><g id="b8hqcpk2s0"><mask id="ba840" x="791.95" y="432" width="26" height="166" maskUnits="userSpaceOnUse"><rect x="791.95" y="432" width="26" height="166" fill="white" /><rect x="796.95" y="502.5" width="16" height="25" fill="black" /></mask><g mask="url(#ba840)"><path d="M 804.95,585 L 804.95,445" fill="none" stroke="#000000" stroke-width="1.5" stroke-linecap="round" stroke-linejoin="round"/></g><g transform="translate(799.95, 505.5)" width="10" height="19"><text text-decoration="none" x="1" fill="rgb(75, 75, 75)" font-weight="bold" font-size="9pt" font-family="Arial"  y="15">N</text><text text-decoration="none" x="9" fill="#4b4b4b" font-size="10pt" font-family="noto_regular"  y="15"></text></g></g><g id="1hnaeux4az"><g><path d="M 804.95,395 L 694.95,315" fill="none" stroke="#000000" stroke-width="1.5" stroke-linecap="round" stroke-linejoin="round"/></g></g><g id="1flogcl51z"><g><path d="M 804.95,395 L 869.95,320" fill="none" stroke="#000000" stroke-width="1.5" stroke-linecap="round" stroke-linejoin="round"/></g></g><g id="9bmd4h541n"><g><path d="M 854.95,420 L 955,350" fill="none" stroke="#000000" stroke-width="1.5" stroke-linecap="round" stroke-linejoin="round"/></g></g><g id="2h4hxlcr1g"><g><path d="M 854.95,420 L 955,445" fill="none" stroke="#000000" stroke-width="1.5" stroke-linecap="round" stroke-linejoin="round"/></g></g><g id="1wp7a5yrx2"><g transform="translate(1200 1090)"><ellipse cx="50" cy="25" rx="50" ry="25" fill="rgba(54,94,134,1)" stroke="#365e86" stroke-width="1.5" stroke-linecap="round" stroke-linejoin="round"/></g><g transform="translate(1234.5, 1105.5) rotate(0, 15.5, 9.5)" width="31" height="19"><text text-decoration="underline" x="1.5" fill="rgb(255, 255, 255)" font-size="10pt" font-family="Lato"  y="15">code</text><text text-decoration="none" x="29.5" fill="#4b4b4b" font-size="10pt" font-family="noto_regular"  y="15"></text></g></g><g id="dkg17h0xtf"><g><path d="M 1060,1135 L 1200,1115" fill="none" stroke="#000000" stroke-width="1.5" stroke-linecap="round" stroke-linejoin="round"/></g></g></svg>